<svg xmlns="http://www.w3.org/2000/svg" xmlns:xlink="http://www.w3.org/1999/xlink" width="200" zoomAndPan="magnify" viewBox="0 0 150 225" height="300" preserveAspectRatio="xMidYMid meet" version="1.0"><defs><clipPath id="3041e29e75"><path d="M 42 67.519531 L 133.707031 67.519531 L 133.707031 157.519531 L 42 157.519531 Z M 42 67.519531 " clip-rule="nonzero"/></clipPath></defs><rect x="-15" width="180" fill="#ffffff" y="-22.5" height="270" fill-opacity="1"/><rect x="-15" width="180" fill="#dd4c46" y="-22.5" height="270" fill-opacity="1"/><path fill="#ffffff" d="M 16.109375 150.355469 L 16.109375 134.871094 L 20.34375 134.871094 L 20.34375 150.726562 L 27.820312 150.726562 L 27.820312 154.6875 L 18.566406 154.6875 L 16.902344 152.621094 C 16.339844 151.886719 16.109375 151.207031 16.109375 150.359375 M 40.242188 147.890625 L 38.011719 138.828125 L 37.5625 138.828125 L 35.332031 147.890625 L 40.246094 147.890625 Z M 30.113281 151.460938 L 34.683594 134.867188 L 39.535156 134.867188 C 40.441406 134.867188 41.003906 135.292969 41.257812 136.199219 L 45.460938 151.460938 C 45.660156 152.136719 45.6875 152.59375 45.6875 153.46875 L 45.6875 154.6875 L 41.933594 154.6875 L 40.4375 148.65625 L 34.367188 151.769531 L 33.636719 154.6875 L 29.878906 154.6875 L 29.878906 153.46875 C 29.878906 152.59375 29.90625 152.136719 30.105469 151.460938 M 47.609375 150.355469 L 47.609375 134.871094 L 51.839844 134.871094 L 51.839844 150.726562 L 59.320312 150.726562 L 59.320312 154.6875 L 50.0625 154.6875 L 48.398438 152.621094 C 47.832031 151.886719 47.605469 151.207031 47.605469 150.359375 M 61.71875 134.867188 L 65.949219 134.867188 L 65.949219 154.6875 L 61.71875 154.6875 Z M 68.828125 148.394531 L 68.828125 141.160156 C 68.828125 136.941406 71.117188 134.648438 75.320312 134.648438 L 77.171875 134.648438 C 81.320312 134.648438 83.664062 136.769531 83.664062 140.535156 L 79.433594 140.535156 L 79.433594 139.742188 C 79.433594 139.007812 79.035156 138.609375 78.300781 138.609375 L 74.191406 138.609375 C 73.457031 138.609375 73.0625 139.007812 73.0625 139.742188 L 73.0625 149.808594 C 73.0625 150.546875 73.457031 150.945312 74.191406 150.945312 L 78.300781 150.945312 C 79.035156 150.945312 79.433594 150.546875 79.433594 149.808594 L 79.433594 147.316406 L 76.496094 147.316406 L 76.496094 143.355469 L 81.210938 143.355469 L 82.875 145.421875 C 83.4375 146.128906 83.667969 146.78125 83.667969 147.683594 L 83.667969 148.394531 C 83.667969 152.613281 81.378906 154.90625 77.175781 154.90625 L 75.324219 154.90625 C 71.117188 154.90625 68.832031 152.613281 68.832031 148.394531 M 95.296875 147.890625 L 93.066406 138.828125 L 92.617188 138.828125 L 90.386719 147.890625 Z M 85.164062 151.460938 L 89.734375 134.867188 L 94.589844 134.867188 C 95.492188 134.867188 96.058594 135.292969 96.308594 136.199219 L 100.515625 151.460938 C 100.714844 152.136719 100.742188 152.59375 100.742188 153.46875 L 100.742188 154.6875 L 96.984375 154.6875 L 95.492188 148.65625 L 89.421875 151.769531 L 88.6875 154.6875 L 84.933594 154.6875 L 84.933594 153.46875 C 84.933594 152.59375 84.960938 152.136719 85.160156 151.460938 M 122.820312 147.277344 L 122.027344 147.277344 L 122.027344 148.261719 L 122.820312 148.261719 C 122.890625 148.261719 122.949219 148.234375 122.996094 148.1875 C 123.039062 148.132812 123.0625 148.066406 123.0625 147.984375 L 123.0625 147.558594 C 123.0625 147.476562 123.042969 147.410156 122.996094 147.355469 C 122.953125 147.300781 122.894531 147.273438 122.824219 147.277344 M 119.832031 147.269531 L 119.25 147.269531 C 119.171875 147.269531 119.113281 147.296875 119.070312 147.347656 C 119.027344 147.402344 119.003906 147.46875 119.003906 147.550781 L 119.003906 149.316406 C 119.003906 149.398438 119.023438 149.464844 119.066406 149.519531 C 119.113281 149.574219 119.171875 149.601562 119.246094 149.605469 L 119.828125 149.605469 C 119.898438 149.605469 119.957031 149.574219 120 149.519531 C 120.046875 149.46875 120.070312 149.398438 120.074219 149.320312 L 120.074219 147.554688 C 120.074219 147.472656 120.054688 147.40625 120.007812 147.351562 C 119.960938 147.296875 119.90625 147.269531 119.832031 147.269531 M 116.921875 147.265625 L 116.097656 147.265625 L 116.097656 148.332031 L 116.921875 148.332031 C 116.992188 148.332031 117.050781 148.308594 117.097656 148.253906 C 117.144531 148.199219 117.167969 148.136719 117.167969 148.050781 L 117.167969 147.550781 C 117.167969 147.464844 117.144531 147.398438 117.097656 147.34375 C 117.054688 147.289062 116.996094 147.265625 116.925781 147.265625 " fill-opacity="1" fill-rule="nonzero"/><g clip-path="url(#3041e29e75)"><path fill="#ffffff" d="M 129.914062 147.175781 L 129.914062 146.933594 C 129.914062 146.933594 129.90625 146.960938 129.898438 146.96875 L 129.792969 147.132812 L 129.785156 147.132812 L 129.675781 146.96875 C 129.675781 146.96875 129.664062 146.945312 129.65625 146.933594 C 129.65625 146.949219 129.664062 146.960938 129.664062 146.96875 L 129.664062 147.175781 L 129.605469 147.175781 L 129.605469 146.839844 L 129.664062 146.839844 L 129.792969 147.042969 L 129.925781 146.839844 L 129.976562 146.839844 L 129.976562 147.175781 Z M 129.53125 146.902344 L 129.402344 146.902344 L 129.402344 147.175781 L 129.335938 147.175781 L 129.335938 146.902344 L 129.207031 146.902344 L 129.207031 146.84375 L 129.53125 146.84375 Z M 129.15625 149.4375 C 129.15625 149.640625 129.085938 149.816406 128.945312 149.957031 C 128.800781 150.101562 128.628906 150.171875 128.425781 150.171875 L 127.566406 150.171875 C 127.363281 150.171875 127.195312 150.101562 127.054688 149.964844 C 126.917969 149.828125 126.847656 149.660156 126.847656 149.449219 L 126.847656 149.105469 L 127.378906 149.105469 L 127.457031 149.425781 C 127.492188 149.554688 127.585938 149.621094 127.730469 149.621094 L 128.3125 149.621094 C 128.386719 149.621094 128.449219 149.597656 128.492188 149.542969 C 128.535156 149.492188 128.558594 149.421875 128.558594 149.339844 L 128.558594 148.964844 C 128.558594 148.777344 128.476562 148.683594 128.316406 148.683594 L 127.585938 148.683594 C 127.382812 148.683594 127.207031 148.613281 127.070312 148.46875 C 126.929688 148.328125 126.855469 148.152344 126.855469 147.953125 L 126.855469 147.457031 C 126.855469 147.257812 126.929688 147.085938 127.074219 146.941406 C 127.214844 146.792969 127.386719 146.722656 127.589844 146.730469 L 128.4375 146.730469 C 128.640625 146.730469 128.808594 146.800781 128.949219 146.9375 C 129.085938 147.074219 129.152344 147.242188 129.152344 147.449219 L 129.152344 147.757812 L 128.625 147.757812 L 128.546875 147.476562 C 128.503906 147.34375 128.414062 147.277344 128.28125 147.277344 L 127.707031 147.277344 C 127.632812 147.277344 127.570312 147.304688 127.527344 147.359375 C 127.484375 147.414062 127.460938 147.480469 127.460938 147.5625 L 127.460938 147.851562 C 127.460938 148.03125 127.542969 148.121094 127.707031 148.121094 L 128.4375 148.121094 C 128.636719 148.121094 128.808594 148.195312 128.949219 148.34375 C 129.097656 148.488281 129.164062 148.660156 129.164062 148.859375 L 129.164062 149.441406 L 129.15625 149.441406 Z M 126.40625 147.28125 L 125.527344 147.28125 L 125.523438 150.167969 L 124.914062 150.167969 L 124.921875 147.277344 L 124.050781 147.277344 L 124.050781 146.722656 L 126.410156 146.722656 L 126.410156 147.28125 Z M 123.15625 150.164062 L 122.597656 148.816406 L 122.023438 148.816406 L 122.023438 150.160156 L 121.417969 150.160156 L 121.421875 146.714844 L 122.941406 146.714844 C 123.144531 146.714844 123.316406 146.789062 123.457031 146.933594 C 123.597656 147.074219 123.671875 147.25 123.667969 147.445312 L 123.667969 148.046875 C 123.667969 148.199219 123.625 148.34375 123.539062 148.46875 C 123.449219 148.59375 123.335938 148.683594 123.203125 148.742188 L 123.800781 150.164062 Z M 120.835938 145.898438 L 112.5625 145.886719 L 114.582031 142.703125 L 113.105469 142.703125 L 114.113281 141.109375 L 120.261719 141.117188 L 119.253906 142.707031 L 116.496094 142.703125 L 115.476562 144.296875 L 119.917969 144.300781 L 123.984375 137.875 L 129.023438 145.90625 L 127.117188 145.90625 L 126.117188 144.308594 L 123.128906 144.304688 L 124.136719 142.710938 L 125.113281 142.710938 L 123.980469 140.898438 L 120.835938 145.890625 Z M 120.675781 149.421875 C 120.675781 149.632812 120.609375 149.804688 120.460938 149.945312 C 120.316406 150.089844 120.148438 150.160156 119.945312 150.160156 L 119.125 150.160156 C 118.921875 150.160156 118.75 150.085938 118.605469 149.941406 C 118.460938 149.800781 118.390625 149.628906 118.390625 149.417969 L 118.390625 147.4375 C 118.394531 147.242188 118.46875 147.070312 118.609375 146.929688 C 118.75 146.789062 118.925781 146.714844 119.128906 146.714844 L 119.945312 146.714844 C 120.148438 146.714844 120.320312 146.789062 120.464844 146.929688 C 120.609375 147.070312 120.675781 147.246094 120.675781 147.445312 Z M 117.769531 148.160156 C 117.769531 148.363281 117.699219 148.535156 117.554688 148.675781 C 117.410156 148.820312 117.238281 148.890625 117.035156 148.890625 L 116.089844 148.890625 L 116.089844 150.15625 L 115.484375 150.15625 L 115.488281 146.710938 L 117.039062 146.710938 C 117.238281 146.714844 117.414062 146.785156 117.558594 146.929688 C 117.699219 147.070312 117.769531 147.242188 117.769531 147.4375 Z M 114.769531 149.417969 C 114.769531 149.621094 114.699219 149.792969 114.558594 149.933594 C 114.417969 150.078125 114.242188 150.148438 114.046875 150.148438 L 113.183594 150.148438 C 112.980469 150.148438 112.808594 150.078125 112.675781 149.941406 C 112.539062 149.808594 112.46875 149.636719 112.472656 149.425781 L 112.472656 149.085938 L 113 149.085938 L 113.078125 149.402344 C 113.113281 149.53125 113.203125 149.601562 113.351562 149.601562 L 113.933594 149.601562 C 114.003906 149.601562 114.066406 149.574219 114.113281 149.519531 C 114.15625 149.46875 114.175781 149.398438 114.175781 149.320312 L 114.175781 148.945312 C 114.175781 148.757812 114.097656 148.664062 113.9375 148.664062 L 113.203125 148.664062 C 113.003906 148.664062 112.832031 148.59375 112.683594 148.449219 C 112.539062 148.308594 112.472656 148.136719 112.476562 147.933594 L 112.476562 147.4375 C 112.476562 147.238281 112.546875 147.066406 112.6875 146.921875 C 112.832031 146.78125 113.007812 146.710938 113.207031 146.710938 L 114.058594 146.710938 C 114.257812 146.710938 114.429688 146.78125 114.566406 146.917969 C 114.707031 147.054688 114.773438 147.226562 114.773438 147.429688 L 114.773438 147.738281 L 114.25 147.738281 L 114.167969 147.457031 C 114.128906 147.324219 114.039062 147.257812 113.898438 147.257812 L 113.324219 147.257812 C 113.25 147.257812 113.191406 147.285156 113.148438 147.339844 C 113.101562 147.394531 113.078125 147.460938 113.078125 147.542969 L 113.078125 147.832031 C 113.078125 148.011719 113.15625 148.101562 113.324219 148.101562 L 114.054688 148.101562 C 114.25 148.101562 114.421875 148.179688 114.566406 148.324219 C 114.707031 148.46875 114.777344 148.640625 114.777344 148.839844 L 114.777344 149.421875 Z M 116.113281 137.921875 L 122.644531 137.933594 L 121.640625 139.523438 L 115.113281 139.515625 L 116.113281 137.925781 Z M 120.871094 132.03125 C 113.851562 132.019531 108.160156 137.71875 108.148438 144.753906 C 108.136719 151.796875 113.816406 157.511719 120.832031 157.519531 C 127.847656 157.53125 133.542969 151.832031 133.554688 144.792969 C 133.566406 137.753906 127.882812 132.039062 120.871094 132.03125 M 57.953125 115.160156 C 57.953125 113.503906 58.613281 111.71875 59.800781 109.996094 L 89.542969 67.519531 L 106.757812 67.519531 L 73.386719 115.160156 L 88.425781 115.160156 L 65.078125 127.070312 L 60.066406 120.652344 C 58.679688 118.867188 57.957031 117.078125 57.957031 115.160156 M 44.699219 90.941406 L 60.855469 67.519531 L 76.484375 67.519531 L 56.371094 96.238281 L 69.429688 96.238281 L 49.121094 106.625 L 45.03125 101.398438 C 43.578125 99.476562 42.917969 98.019531 42.917969 96.035156 C 42.917969 94.25 43.578125 92.527344 44.699219 90.941406 " fill-opacity="1" fill-rule="nonzero"/></g></svg>